<?xml version="1.0" encoding="utf-8"?>
<svg version="1.1" xmlns="http://www.w3.org/2000/svg" x="0px" y="0px" viewBox="0 0 40 40">
  <path fill="#0E131B" d="M25,31H7c-3.31,0-6-2.69-6-6V7c0-3.31,2.69-6,6-6h18c3.31,0,6,2.69,6,6v18C31,28.31,28.31,31,25,31z"/>
  <path fill="#FFFFFF" d="M8.7,16.01C8.7,10.8,12.02,8,16.21,8c3.88,0,6.68,2.13,7.07,5.9h-4.29c-0.17-1.33-1.09-2.22-2.66-2.22
    c-2.12,0-3.28,1.61-3.28,4.33c0,2.85,1.19,4.31,3.26,4.31c1.55,0,2.49-0.89,2.7-2.22h4.29c-0.21,2.66-2.52,5.9-7.09,5.9
    C11.93,24,8.7,21.19,8.7,16.01z"/>
</svg>
