<?xml version="1.0" encoding="utf-8"?>
<svg version="1.1" xmlns="http://www.w3.org/2000/svg" x="0px" y="0px" viewBox="0 0 40 40">
  <path fill="#002B84" d="M30,40H10C4.48,40,0,35.52,0,30V10C0,4.48,4.48,0,10,0h20c5.52,0,10,4.48,10,10v20C40,35.52,35.52,40,30,40z"/>
  <path fill="#6697FD" d="M10.74,17.44v4.45l4.99-4.99l-3.97-3.97C11.04,14.25,10.68,15.82,10.74,17.44z"/>
  <path fill="#97B9FD" d="M11.76,12.93l3.97,3.97l4.99-4.99l-3.37-3.43C14.95,9.14,12.91,10.77,11.76,12.93z"/>
  <path fill="#3377FD" d="M19.34,8.18c-0.66,0-1.38,0.12-1.98,0.3l3.43,3.43l2.83-2.83C22.29,8.48,20.85,8.18,19.34,8.18z"/>
  <rect fill="#6697FD" x="18.38" y="12.19" transform="matrix(0.707 -0.7072 0.7072 0.707 -4.7077 20.1187)" width="7.1" height="7.1"/>
  <path fill="#97B9FD" d="M15.73,26.88l-3.61,3.61c0.96,0.96,2.29,1.56,3.79,1.5c1.32-0.06,2.53-0.6,3.43-1.5L15.73,26.88z"/>
  <path fill="#6697FD" d="M23.85,25.02l-3.07-3.07l-4.99,4.99l3.61,3.61c0.9-0.96,1.44-2.23,1.44-3.67v-0.9
    C21.87,25.8,22.89,25.5,23.85,25.02z"/>
  <path fill="#3377FD" d="M28.24,19.43l-2.53-2.53l-3.85,3.85l-4.99-4.99l-4.99,4.99v4.93c0,0.12,0,0.24,0,0.36
    c0.06,1.26,0.6,2.47,1.44,3.31l3.61-3.61l3.85-3.85l3.07,3.07C26.02,23.82,27.64,21.83,28.24,19.43z"/>
  <path fill="#97B9FD" d="M28.24,19.43c0.24-0.84,0.36-1.74,0.3-2.65c0-0.78-0.18-1.56-0.42-2.29l1.14-1.14
    c-0.72-2.35-2.41-4.33-4.63-5.35l-2.83,2.83l4.99,4.99l-1.14,1.14L28.24,19.43z"/>
</svg>
