<?xml version="1.0" encoding="utf-8"?>
<svg version="1.1" xmlns="http://www.w3.org/2000/svg" x="0px" y="0px" viewBox="0 0 40 40">
  <path fill="#CED2F7" d="M30,40H10C4.48,40,0,35.52,0,30V10C0,4.48,4.48,0,10,0h20c5.52,0,10,4.48,10,10v20C40,35.52,35.52,40,30,40z"/>
  <path fill="#6772FD" d="M26.21,21.44c-0.23-0.39-0.6-0.67-1.04-0.79c-0.44-0.11-0.9-0.05-1.29,0.18l-9.7,5.7
    c-0.23,0.14-0.54,0.06-0.68-0.17c-0.08-0.14-0.08-0.28-0.05-0.37c0.02-0.09,0.08-0.21,0.23-0.3l14.36-8.44
    c0.9-0.53,1.53-1.37,1.8-2.38c0.26-1.01,0.11-2.05-0.41-2.95c-1.09-1.85-3.48-2.47-5.35-1.37l-8.15,4.93l-1.21-2.07h2.57l5.79-3.4
    H11.74v0.01c-0.29,0-0.59,0.07-0.86,0.23c-0.81,0.47-1.08,1.52-0.61,2.33l3.58,6.12c0.23,0.39,0.61,0.68,1.05,0.79
    c0.44,0.11,0.91,0.04,1.3-0.19l9.61-5.81c0.24-0.14,0.54-0.06,0.68,0.17c0.09,0.14,0.08,0.28,0.05,0.37
    c-0.02,0.09-0.08,0.21-0.23,0.3l-14.36,8.44c-0.9,0.53-1.53,1.37-1.8,2.38c-0.26,1.01-0.11,2.06,0.41,2.95
    c1.09,1.85,3.48,2.47,5.33,1.38l8.23-4.84l1.16,1.97h-2.57L16.93,30h11.33c0,0,0,0,0,0c0.29,0,0.59-0.08,0.86-0.23
    c0.81-0.47,1.08-1.52,0.61-2.33L26.21,21.44z"/>
</svg>
