<?xml version="1.0" encoding="utf-8"?>
<svg version="1.1" xmlns="http://www.w3.org/2000/svg" x="0px" y="0px" viewBox="0 0 40 40">
  <g>
    <path fill="#142233" d="M30,40H10C4.48,40,0,35.52,0,30V10C0,4.48,4.48,0,10,0h20c5.52,0,10,4.48,10,10v20C40,35.52,35.52,40,30,40z" />
    <path fill="#00E9C1" d="M20.42,25c-0.48-0.44-0.72-1.05-0.72-1.65v-6.28h7.12l-3.79-3.67H19.7V10h-4.42v3.4h-2.13v3.67h2.13v6.28
      c0,1.85,0.78,3.63,2.14,4.88c2.7,2.49,6.93,2.33,9.43-0.36l-3.24-3C22.76,25.79,21.34,25.84,20.42,25z"/>
  </g>
</svg>
