<?xml version="1.0" encoding="utf-8"?>
<svg version="1.1" xmlns="http://www.w3.org/2000/svg" x="0px" y="0px" viewBox="0 0 40 40">
  <path fill="#F83338" d="M30,40H10C4.48,40,0,35.52,0,30V10C0,4.48,4.48,0,10,0h20c5.52,0,10,4.48,10,10v20C40,35.52,35.52,40,30,40z"/>
  <path fill="#FFFFFF" d="M34.87,17.88c-0.24-0.3-0.58-0.45-1.02-0.45c-0.21,0-0.36,0.01-0.45,0.04l-1.2,0.22
    c-1.87,0.38-3.37,0.59-4.49,0.64c0.72-1.71,1.09-3.24,1.09-4.57c0.01-1.16-0.26-2.04-0.79-2.65c-0.53-0.61-1.23-0.92-2.09-0.92
    c-0.98-0.01-1.85,0.29-2.63,0.87c-0.77,0.59-1.39,1.36-1.84,2.3c-0.45,0.95-0.68,1.92-0.68,2.93c-0.01,1.07,0.22,2.12,0.68,3.06
    c0.27,0.56,0.64,1.08,1.09,1.54c-1.98,2.65-4.12,4.84-5.36,5.91c-1-5.65-0.58-6.64-0.56-10.05c0-0.8-0.18-1.37-0.55-1.71
    c-0.37-0.34-0.94-0.52-1.71-0.52c-1.01-0.01-1.76,0.18-2.27,0.57c-0.51,0.38-0.78,1.06-0.81,2.04c0,0-0.62,8.62,1.78,12.73
    c0.63,1.07,2.08,1.47,3.22,1.4c0.96-0.06,2.04-0.32,2.82-0.9c1.71-1.26,4.16-4.1,6.36-7.75c1.04,0.3,2.14,0.4,3.23,0.4
    c1.54,0.01,2.99-0.21,4.36-0.64c0.71-0.23,1.25-0.61,1.61-1.12c0.36-0.52,0.54-1.23,0.55-2.15C35.23,18.58,35.11,18.18,34.87,17.88z
    M23.17,14.57c0.5,0.02,0.9,0.18,1.2,0.51c0.31,0.34,0.46,0.8,0.46,1.36c0,0.67-0.2,1.29-0.58,1.86c-0.5-0.02-0.9-0.18-1.2-0.51
    c-0.31-0.34-0.46-0.8-0.46-1.36C22.6,15.76,22.79,15.14,23.17,14.57z"/>
</svg>
